<svg width="20" height="21" viewBox="0 0 20 21" fill="none" xmlns="http://www.w3.org/2000/svg">
<g id="vuesax/bulk/briefcase">
<g id="briefcase">
<path id="Vector" d="M17.5749 6.31628C16.8665 5.53294 15.6832 5.14128 13.9665 5.14128H13.7665V5.10794C13.7665 3.70794 13.7665 1.97461 10.6332 1.97461H9.36653C6.2332 1.97461 6.2332 3.71628 6.2332 5.10794V5.14961H6.0332C4.3082 5.14961 3.1332 5.54128 2.42487 6.32461C1.59987 7.24128 1.62487 8.47461 1.7082 9.31628L1.71654 9.37461L1.79987 10.2496C1.8082 10.2579 1.82487 10.2746 1.84154 10.2829C2.11654 10.4663 2.39987 10.6496 2.69987 10.8163C2.81654 10.8913 2.94154 10.9579 3.06654 11.0246C4.49154 11.8079 6.0582 12.3329 7.64987 12.5913C7.72487 13.3746 8.06653 14.2913 9.89153 14.2913C11.7165 14.2913 12.0749 13.3829 12.1332 12.5746C13.8332 12.2996 15.4749 11.7079 16.9582 10.8413C17.0082 10.8163 17.0415 10.7913 17.0832 10.7663C17.4665 10.5496 17.8249 10.3163 18.1749 10.0579C18.1915 10.0496 18.2082 10.0329 18.2165 10.0163L18.2499 9.71628L18.2915 9.32461C18.2999 9.27461 18.2999 9.23294 18.3082 9.17461C18.3749 8.33294 18.3582 7.18294 17.5749 6.31628ZM10.9082 12.0246C10.9082 12.9079 10.9082 13.0413 9.8832 13.0413C8.8582 13.0413 8.8582 12.8829 8.8582 12.0329V10.9829H10.9082V12.0246ZM7.42487 5.14128V5.10794C7.42487 3.69128 7.42487 3.16628 9.36653 3.16628H10.6332C12.5749 3.16628 12.5749 3.69961 12.5749 5.10794V5.14961H7.42487V5.14128Z" fill="#1D2D5A"/>
<path id="Vector_2" opacity="0.4" d="M17.0831 10.7502C17.0415 10.7752 16.9998 10.8002 16.9581 10.8252C15.4748 11.6919 13.8331 12.2752 12.1331 12.5586C12.0665 13.3586 11.7165 14.2752 9.89147 14.2752C8.06647 14.2752 7.71647 13.3669 7.64981 12.5752C6.05814 12.3252 4.49147 11.8002 3.06647 11.0086C2.94147 10.9419 2.81647 10.8752 2.6998 10.8002C2.3998 10.6336 2.11647 10.4502 1.84147 10.2669C1.8248 10.2586 1.80814 10.2419 1.7998 10.2336L2.30814 15.6586C2.48314 17.3169 3.16647 19.0252 6.83314 19.0252H13.1831C16.8498 19.0252 17.5331 17.3169 17.7081 15.6502L18.2331 10.0002C18.2248 10.0169 18.2081 10.0336 18.1915 10.0419C17.8331 10.3002 17.4665 10.5419 17.0831 10.7502Z" fill="#1D2D5A"/>
</g>
</g>
</svg>
