<svg width="20" height="21" viewBox="0 0 20 21" fill="none" xmlns="http://www.w3.org/2000/svg">
<g id="vuesax/bulk/brifecase-timer">
<g id="brifecase-timer">
<path id="Vector" d="M9.27497 13.7332C9.06663 13.7332 8.8583 13.6249 8.74163 13.4332C8.56663 13.1415 8.6583 12.7499 8.9583 12.5749L9.69997 12.1332V11.2332C9.69997 10.8915 9.9833 10.6082 10.325 10.6082C10.6666 10.6082 10.95 10.8915 10.95 11.2332V12.4832C10.95 12.6999 10.8333 12.9082 10.65 13.0165L9.6083 13.6415C9.49163 13.6999 9.3833 13.7332 9.27497 13.7332Z" fill="#1D2D5A"/>
<path id="Vector_2" opacity="0.4" d="M18.2087 10.0085L17.692 15.6585C17.517 17.3252 16.8337 19.0252 13.167 19.0252H6.81699C3.15033 19.0252 2.46699 17.3252 2.30033 15.6668L1.79199 10.2418C1.80033 10.2502 1.80866 10.2585 1.82533 10.2668C2.10866 10.4502 2.38366 10.6335 2.68366 10.8002C2.80033 10.8752 2.92533 10.9418 3.05033 11.0085C3.99199 11.5252 5.00033 11.9335 6.04199 12.2168C6.45866 12.3418 6.88366 12.4335 7.31699 12.5085C7.48366 13.8418 8.62533 14.8752 10.0003 14.8752C11.392 14.8752 12.542 13.8168 12.692 12.4585V12.4502C13.117 12.3668 13.542 12.2585 13.9587 12.1335C15.0003 11.8085 16.0087 11.3752 16.9503 10.8252C17.0003 10.8002 17.042 10.7752 17.0753 10.7502C17.4587 10.5418 17.8253 10.3002 18.1753 10.0502C18.192 10.0418 18.2003 10.0252 18.2087 10.0085Z" fill="#1D2D5A"/>
<path id="Vector_3" d="M17.5749 6.3167C16.8665 5.53337 15.6915 5.1417 13.9665 5.1417H13.7665V5.10837C13.7665 3.70837 13.7665 1.97504 10.6332 1.97504H9.36653C6.2332 1.97504 6.2332 3.70837 6.2332 5.10837V5.1417H6.0332C4.3082 5.1417 3.12487 5.53337 2.42487 6.3167C1.59987 7.2417 1.62487 8.4667 1.7082 9.30837L1.71654 9.3667L1.79154 10.2417C1.79987 10.25 1.81654 10.2584 1.8332 10.2667C2.11654 10.45 2.39154 10.6334 2.69154 10.8C2.8082 10.875 2.9332 10.9417 3.0582 11.0084C3.99987 11.525 5.0082 11.9334 6.04153 12.2167C6.06653 14.375 7.8332 16.125 9.99987 16.125C12.1832 16.125 13.9582 14.35 13.9582 12.1667V12.1334C15.0082 11.8167 16.0165 11.375 16.9582 10.825C17.0082 10.8 17.0415 10.775 17.0832 10.75C17.4665 10.5417 17.8332 10.3 18.1832 10.05C18.1915 10.0417 18.2082 10.025 18.2165 10.0084L18.2499 9.70837L18.2915 9.3167C18.2999 9.2667 18.2999 9.22504 18.3082 9.1667C18.3749 8.33337 18.3582 7.18337 17.5749 6.3167ZM7.42487 5.10837C7.42487 3.6917 7.42487 3.15837 9.36653 3.15837H10.6332C12.5749 3.15837 12.5749 3.6917 12.5749 5.10837V5.1417H7.42487V5.10837ZM9.99987 14.875C8.62487 14.875 7.4832 13.8417 7.31653 12.5084C7.29987 12.4 7.29153 12.2834 7.29153 12.1667C7.29153 10.675 8.5082 9.45837 9.99987 9.45837C11.4915 9.45837 12.7082 10.675 12.7082 12.1667C12.7082 12.2667 12.6999 12.3584 12.6915 12.45V12.4584C12.5415 13.8167 11.3915 14.875 9.99987 14.875Z" fill="#1D2D5A"/>
</g>
</g>
</svg>
