<svg width="20" height="21" viewBox="0 0 20 21" fill="none" xmlns="http://www.w3.org/2000/svg">
<g id="vuesax/bulk/location">
<g id="location">
<path id="Vector" opacity="0.4" d="M17.1829 7.54158C16.3079 3.69159 12.9496 1.95825 9.99959 1.95825C9.99959 1.95825 9.99959 1.95825 9.99126 1.95825C7.04959 1.95825 3.68292 3.68325 2.80792 7.53325C1.83292 11.8333 4.46626 15.4749 6.84959 17.7666C7.73292 18.6166 8.86626 19.0416 9.99959 19.0416C11.1329 19.0416 12.2663 18.6166 13.1413 17.7666C15.5246 15.4749 18.1579 11.8416 17.1829 7.54158Z" fill="#1D2D5A"/>
<path id="Vector_2" d="M10 11.7168C11.4497 11.7168 12.625 10.5415 12.625 9.0918C12.625 7.64205 11.4497 6.4668 10 6.4668C8.55025 6.4668 7.375 7.64205 7.375 9.0918C7.375 10.5415 8.55025 11.7168 10 11.7168Z" fill="#1D2D5A"/>
</g>
</g>
</svg>
