<svg width="20" height="21" viewBox="0 0 20 21" fill="none" xmlns="http://www.w3.org/2000/svg">
<g id="vuesax/bulk/teacher">
<g id="teacher">
<path id="Vector" opacity="0.4" d="M15.3169 11.2V15.3083C15.3169 16.3666 14.4919 17.5 13.5003 17.8333L10.8419 18.7166C10.3753 18.875 9.61693 18.875 9.15859 18.7166L6.50026 17.8333C5.50026 17.5 4.68359 16.3666 4.68359 15.3083L4.69193 11.2L8.37526 13.6C9.27526 14.1916 10.7586 14.1916 11.6586 13.6L15.3169 11.2Z" fill="#1D2D5A"/>
<path id="Vector_2" d="M16.6493 5.88306L11.6576 2.60806C10.7576 2.01639 9.27428 2.01639 8.37428 2.60806L3.35762 5.88306C1.74928 6.92472 1.74928 9.28306 3.35762 10.3331L4.69095 11.1997L8.37428 13.5997C9.27428 14.1914 10.7576 14.1914 11.6576 13.5997L15.3159 11.1997L16.4576 10.4497V12.9997C16.4576 13.3414 16.7409 13.6247 17.0826 13.6247C17.4243 13.6247 17.7076 13.3414 17.7076 12.9997V8.89972C18.0409 7.82472 17.6993 6.57472 16.6493 5.88306Z" fill="#1D2D5A"/>
</g>
</g>
</svg>
