<svg width="12" height="20" viewBox="0 0 12 20" fill="none" xmlns="http://www.w3.org/2000/svg">
<path id="Vector" d="M8.2498 0.875C7.02318 0.875 5.84679 1.36228 4.97944 2.22963C4.11208 3.09699 3.6248 4.27337 3.6248 5.5V8.075H1.1498C1.0258 8.075 0.924805 8.175 0.924805 8.3V11.7C0.924805 11.824 1.0248 11.925 1.1498 11.925H3.6248V18.9C3.6248 19.024 3.7248 19.125 3.8498 19.125H7.2498C7.3738 19.125 7.4748 19.025 7.4748 18.9V11.925H9.9718C10.0748 11.925 10.1648 11.855 10.1898 11.755L11.0398 8.355C11.0482 8.32182 11.0489 8.28717 11.0418 8.25369C11.0348 8.22021 11.0202 8.18877 10.9992 8.16178C10.9781 8.13478 10.9512 8.11293 10.9205 8.09789C10.8898 8.08286 10.856 8.07503 10.8218 8.075H7.4748V5.5C7.4748 5.39823 7.49485 5.29745 7.5338 5.20342C7.57275 5.10939 7.62983 5.02396 7.7018 4.95199C7.77376 4.88003 7.8592 4.82294 7.95323 4.78399C8.04725 4.74505 8.14803 4.725 8.2498 4.725H10.8498C10.9738 4.725 11.0748 4.625 11.0748 4.5V1.1C11.0748 0.976 10.9748 0.875 10.8498 0.875H8.2498Z" fill="white"/>
</svg>
