<svg width="35" height="34" viewBox="0 0 35 34" fill="none" xmlns="http://www.w3.org/2000/svg">
<g id="youtube">
<path id="bg" d="M29.5 0L6.125 0C3.19099 0 0.8125 2.37849 0.8125 5.3125L0.8125 28.6875C0.8125 31.6215 3.19099 34 6.125 34H29.5C32.434 34 34.8125 31.6215 34.8125 28.6875V5.3125C34.8125 2.37849 32.434 0 29.5 0Z" fill="white" fill-opacity="0.1"/>
<path id="youtube_2" d="M25.8875 12.8561C25.675 12.1123 25.1438 11.5811 24.4 11.3686C23.125 11.0498 17.7062 11.0498 17.7062 11.0498C17.7062 11.0498 12.3938 11.0498 11.0125 11.3686C10.2688 11.5811 9.7375 12.1123 9.525 12.8561C9.3125 14.2373 9.3125 16.9998 9.3125 16.9998C9.3125 16.9998 9.3125 19.7623 9.63125 21.1436C9.84375 21.8873 10.375 22.4186 11.1187 22.6311C12.3937 22.9498 17.8125 22.9498 17.8125 22.9498C17.8125 22.9498 23.125 22.9498 24.5062 22.6311C25.25 22.4186 25.7813 21.8873 25.9938 21.1436C26.3125 19.7623 26.3125 16.9998 26.3125 16.9998C26.3125 16.9998 26.3125 14.2373 25.8875 12.8561ZM16.1125 19.5498V14.4498L20.575 16.9998L16.1125 19.5498Z" fill="white"/>
</g>
</svg>
